<mxfile host="app.diagrams.net" modified="2023-04-30T23:30:52.552Z" agent="Mozilla/5.0 (Windows NT 10.0; Win64; x64) AppleWebKit/537.36 (KHTML, like Gecko) Chrome/111.0.0.0 Safari/537.36 OPR/97.0.0.0" etag="CgEvIWAxpazXqCZSu9fq" version="21.2.3" type="github">
  <diagram name="Page-1" id="42789a77-a242-8287-6e28-9cd8cfd52e62">
    <mxGraphModel dx="1471" dy="1588" grid="1" gridSize="5" guides="1" tooltips="1" connect="1" arrows="1" fold="1" page="0" pageScale="1" pageWidth="1100" pageHeight="850" background="#ffffff" math="0" shadow="0">
      <root>
        <mxCell id="0" />
        <mxCell id="1" parent="0" />
        <mxCell id="1ea317790d2ca983-13" value="Se crea scanner y" style="edgeStyle=none;rounded=1;html=1;labelBackgroundColor=none;startArrow=none;startFill=0;startSize=5;endArrow=classicThin;endFill=1;endSize=5;jettySize=auto;orthogonalLoop=1;strokeColor=#E07A5F;strokeWidth=1;fontFamily=Verdana;fontSize=12;fontColor=default;" parent="1" source="1ea317790d2ca983-1" target="1ea317790d2ca983-9" edge="1">
          <mxGeometry relative="1" as="geometry" />
        </mxCell>
        <mxCell id="IchzYvAacnoV2I44q3jx-5" style="edgeStyle=orthogonalEdgeStyle;rounded=0;orthogonalLoop=1;jettySize=auto;html=1;" edge="1" parent="1" source="1ea317790d2ca983-1">
          <mxGeometry relative="1" as="geometry">
            <mxPoint x="40" y="-752" as="targetPoint" />
            <Array as="points">
              <mxPoint x="90" y="-752" />
              <mxPoint x="90" y="-752" />
            </Array>
          </mxGeometry>
        </mxCell>
        <mxCell id="1ea317790d2ca983-1" value="&lt;font style=&quot;font-size: 18px;&quot;&gt;&lt;b&gt;Main&lt;/b&gt;&lt;/font&gt;" style="ellipse;whiteSpace=wrap;html=1;rounded=1;shadow=1;comic=0;labelBackgroundColor=none;strokeWidth=1;fontFamily=Verdana;fontSize=12;align=center;fillColor=#F2CC8F;strokeColor=#E07A5F;fontColor=#393C56;" parent="1" vertex="1">
          <mxGeometry x="530" y="-780" width="110" height="55" as="geometry" />
        </mxCell>
        <mxCell id="1ea317790d2ca983-9" value="Se pregunta:" style="ellipse;whiteSpace=wrap;html=1;rounded=1;shadow=1;comic=0;labelBackgroundColor=none;strokeWidth=1;fontFamily=Verdana;fontSize=12;align=center;fillColor=#F2CC8F;strokeColor=#E07A5F;fontColor=#393C56;" parent="1" vertex="1">
          <mxGeometry x="536.25" y="-620" width="97.5" height="55" as="geometry" />
        </mxCell>
        <mxCell id="IchzYvAacnoV2I44q3jx-7" value="Vectores dinámicos" style="ellipse;whiteSpace=wrap;html=1;rounded=1;shadow=1;comic=0;labelBackgroundColor=none;strokeWidth=1;fontFamily=Verdana;fontSize=12;align=center;fillColor=#F2CC8F;strokeColor=#E07A5F;fontColor=#393C56;" vertex="1" parent="1">
          <mxGeometry x="-70" y="-790" width="110" height="77.5" as="geometry" />
        </mxCell>
        <mxCell id="IchzYvAacnoV2I44q3jx-10" value="Para" style="edgeStyle=none;rounded=1;html=1;labelBackgroundColor=none;startArrow=none;startFill=0;startSize=5;endArrow=classicThin;endFill=1;endSize=5;jettySize=auto;orthogonalLoop=1;strokeColor=#E07A5F;strokeWidth=1;fontFamily=Verdana;fontSize=12;fontColor=default;entryX=0.926;entryY=0.763;entryDx=0;entryDy=0;entryPerimeter=0;" edge="1" parent="1" target="IchzYvAacnoV2I44q3jx-11">
          <mxGeometry x="-0.0004" relative="1" as="geometry">
            <mxPoint x="-45" y="-785" as="sourcePoint" />
            <mxPoint x="-100" y="-815" as="targetPoint" />
            <mxPoint as="offset" />
          </mxGeometry>
        </mxCell>
        <mxCell id="IchzYvAacnoV2I44q3jx-11" value="datos_ia.txt" style="ellipse;whiteSpace=wrap;html=1;rounded=1;shadow=1;comic=0;labelBackgroundColor=none;strokeWidth=1;fontFamily=Verdana;fontSize=12;align=center;fillColor=#F2CC8F;strokeColor=#E07A5F;fontColor=#393C56;" vertex="1" parent="1">
          <mxGeometry x="-262.5" y="-880" width="135" height="75" as="geometry" />
        </mxCell>
        <mxCell id="IchzYvAacnoV2I44q3jx-12" value="&amp;nbsp;datos_creadores.txt" style="ellipse;whiteSpace=wrap;html=1;rounded=1;shadow=1;comic=0;labelBackgroundColor=none;strokeWidth=1;fontFamily=Verdana;fontSize=12;align=center;fillColor=#F2CC8F;strokeColor=#E07A5F;fontColor=#393C56;" vertex="1" parent="1">
          <mxGeometry x="-260" y="-790" width="130" height="75" as="geometry" />
        </mxCell>
        <mxCell id="IchzYvAacnoV2I44q3jx-13" value="datos_usuarios.txt" style="ellipse;whiteSpace=wrap;html=1;rounded=1;shadow=1;comic=0;labelBackgroundColor=none;strokeWidth=1;fontFamily=Verdana;fontSize=12;align=center;fillColor=#F2CC8F;strokeColor=#E07A5F;fontColor=#393C56;" vertex="1" parent="1">
          <mxGeometry x="-262.5" y="-705" width="135" height="75" as="geometry" />
        </mxCell>
        <mxCell id="IchzYvAacnoV2I44q3jx-14" value="Para" style="edgeStyle=none;rounded=1;html=1;labelBackgroundColor=none;startArrow=none;startFill=0;startSize=5;endArrow=classicThin;endFill=1;endSize=5;jettySize=auto;orthogonalLoop=1;strokeColor=#E07A5F;strokeWidth=1;fontFamily=Verdana;fontSize=12;fontColor=default;entryX=1;entryY=0.5;entryDx=0;entryDy=0;" edge="1" parent="1" target="IchzYvAacnoV2I44q3jx-12">
          <mxGeometry x="-0.0039" y="7" relative="1" as="geometry">
            <mxPoint x="-70" y="-751.5" as="sourcePoint" />
            <mxPoint x="-105" y="-751.59" as="targetPoint" />
            <mxPoint as="offset" />
          </mxGeometry>
        </mxCell>
        <mxCell id="IchzYvAacnoV2I44q3jx-17" value="Manda a crear" style="text;strokeColor=none;align=center;fillColor=none;html=1;verticalAlign=middle;whiteSpace=wrap;rounded=0;" vertex="1" parent="1">
          <mxGeometry x="245" y="-760" width="105" height="50" as="geometry" />
        </mxCell>
        <mxCell id="IchzYvAacnoV2I44q3jx-20" value="Para" style="edgeStyle=none;rounded=1;html=1;labelBackgroundColor=none;startArrow=none;startFill=0;startSize=5;endArrow=classicThin;endFill=1;endSize=5;jettySize=auto;orthogonalLoop=1;strokeColor=#E07A5F;strokeWidth=1;fontFamily=Verdana;fontSize=12;fontColor=default;entryX=0.979;entryY=0.411;entryDx=0;entryDy=0;entryPerimeter=0;exitX=0.191;exitY=0.927;exitDx=0;exitDy=0;exitPerimeter=0;" edge="1" parent="1" source="IchzYvAacnoV2I44q3jx-7" target="IchzYvAacnoV2I44q3jx-13">
          <mxGeometry x="-0.0004" relative="1" as="geometry">
            <mxPoint x="-32" y="-659" as="sourcePoint" />
            <mxPoint x="-125" y="-700" as="targetPoint" />
            <mxPoint as="offset" />
          </mxGeometry>
        </mxCell>
        <mxCell id="IchzYvAacnoV2I44q3jx-22" value="de tamaño" style="edgeStyle=none;rounded=1;html=1;labelBackgroundColor=none;startArrow=none;startFill=0;startSize=5;endArrow=classicThin;endFill=1;endSize=5;jettySize=auto;orthogonalLoop=1;strokeColor=#E07A5F;strokeWidth=1;fontFamily=Verdana;fontSize=12;fontColor=default;exitX=0.1;exitY=0.247;exitDx=0;exitDy=0;exitPerimeter=0;" edge="1" parent="1" source="IchzYvAacnoV2I44q3jx-13">
          <mxGeometry x="-0.0004" relative="1" as="geometry">
            <mxPoint x="-324" y="-710" as="sourcePoint" />
            <mxPoint x="-445" y="-745" as="targetPoint" />
            <mxPoint as="offset" />
          </mxGeometry>
        </mxCell>
        <mxCell id="IchzYvAacnoV2I44q3jx-23" value="de tamaño" style="edgeStyle=none;rounded=1;html=1;labelBackgroundColor=none;startArrow=none;startFill=0;startSize=5;endArrow=classicThin;endFill=1;endSize=5;jettySize=auto;orthogonalLoop=1;strokeColor=#E07A5F;strokeWidth=1;fontFamily=Verdana;fontSize=12;fontColor=default;exitX=0;exitY=0.5;exitDx=0;exitDy=0;" edge="1" parent="1" source="IchzYvAacnoV2I44q3jx-12">
          <mxGeometry x="-0.0004" relative="1" as="geometry">
            <mxPoint x="-262.5" y="-725" as="sourcePoint" />
            <mxPoint x="-445" y="-750" as="targetPoint" />
            <mxPoint as="offset" />
          </mxGeometry>
        </mxCell>
        <mxCell id="IchzYvAacnoV2I44q3jx-24" value="de tamaño" style="edgeStyle=none;rounded=1;html=1;labelBackgroundColor=none;startArrow=none;startFill=0;startSize=5;endArrow=classicThin;endFill=1;endSize=5;jettySize=auto;orthogonalLoop=1;strokeColor=#E07A5F;strokeWidth=1;fontFamily=Verdana;fontSize=12;fontColor=default;exitX=0.1;exitY=0.247;exitDx=0;exitDy=0;exitPerimeter=0;" edge="1" parent="1">
          <mxGeometry x="-0.0004" relative="1" as="geometry">
            <mxPoint x="-254" y="-821" as="sourcePoint" />
            <mxPoint x="-445" y="-755" as="targetPoint" />
            <mxPoint as="offset" />
          </mxGeometry>
        </mxCell>
        <mxCell id="IchzYvAacnoV2I44q3jx-25" value="vectorDinamicoIas&lt;br&gt;vectorDinamicoCreadores&lt;br&gt;vectorDinamicoUsuarios" style="ellipse;whiteSpace=wrap;html=1;rounded=1;shadow=1;comic=0;labelBackgroundColor=none;strokeWidth=1;fontFamily=Verdana;fontSize=12;align=center;fillColor=#F2CC8F;strokeColor=#E07A5F;fontColor=#393C56;" vertex="1" parent="1">
          <mxGeometry x="-600" y="-788.75" width="155" height="83.75" as="geometry" />
        </mxCell>
        <mxCell id="IchzYvAacnoV2I44q3jx-39" style="edgeStyle=orthogonalEdgeStyle;rounded=0;orthogonalLoop=1;jettySize=auto;html=1;exitX=0.5;exitY=1;exitDx=0;exitDy=0;entryX=0.465;entryY=-0.022;entryDx=0;entryDy=0;entryPerimeter=0;" edge="1" parent="1" source="IchzYvAacnoV2I44q3jx-26" target="IchzYvAacnoV2I44q3jx-30">
          <mxGeometry relative="1" as="geometry">
            <mxPoint x="580" y="-455" as="targetPoint" />
          </mxGeometry>
        </mxCell>
        <mxCell id="IchzYvAacnoV2I44q3jx-26" value="Contraseña:" style="ellipse;whiteSpace=wrap;html=1;rounded=1;shadow=1;comic=0;labelBackgroundColor=none;strokeWidth=1;fontFamily=Verdana;fontSize=12;align=center;fillColor=#F2CC8F;strokeColor=#E07A5F;fontColor=#393C56;" vertex="1" parent="1">
          <mxGeometry x="600" y="-540" width="97.5" height="55" as="geometry" />
        </mxCell>
        <mxCell id="IchzYvAacnoV2I44q3jx-40" style="edgeStyle=orthogonalEdgeStyle;rounded=0;orthogonalLoop=1;jettySize=auto;html=1;exitX=0.5;exitY=1;exitDx=0;exitDy=0;entryX=0.462;entryY=-0.01;entryDx=0;entryDy=0;entryPerimeter=0;" edge="1" parent="1" source="IchzYvAacnoV2I44q3jx-27" target="IchzYvAacnoV2I44q3jx-30">
          <mxGeometry relative="1" as="geometry" />
        </mxCell>
        <mxCell id="IchzYvAacnoV2I44q3jx-27" value="Nombre de usuario:" style="ellipse;whiteSpace=wrap;html=1;rounded=1;shadow=1;comic=0;labelBackgroundColor=none;strokeWidth=1;fontFamily=Verdana;fontSize=12;align=center;fillColor=#F2CC8F;strokeColor=#E07A5F;fontColor=#393C56;" vertex="1" parent="1">
          <mxGeometry x="465" y="-540" width="97.5" height="55" as="geometry" />
        </mxCell>
        <mxCell id="IchzYvAacnoV2I44q3jx-28" value="" style="edgeStyle=none;rounded=1;html=1;labelBackgroundColor=none;startArrow=none;startFill=0;startSize=5;endArrow=classicThin;endFill=1;endSize=5;jettySize=auto;orthogonalLoop=1;strokeColor=#E07A5F;strokeWidth=1;fontFamily=Verdana;fontSize=12;fontColor=default;" edge="1" parent="1" source="1ea317790d2ca983-9" target="IchzYvAacnoV2I44q3jx-27">
          <mxGeometry relative="1" as="geometry">
            <mxPoint x="540" y="-580" as="sourcePoint" />
            <mxPoint x="505" y="-535" as="targetPoint" />
          </mxGeometry>
        </mxCell>
        <mxCell id="IchzYvAacnoV2I44q3jx-29" value="" style="edgeStyle=none;rounded=1;html=1;labelBackgroundColor=none;startArrow=none;startFill=0;startSize=5;endArrow=classicThin;endFill=1;endSize=5;jettySize=auto;orthogonalLoop=1;strokeColor=#E07A5F;strokeWidth=1;fontFamily=Verdana;fontSize=12;fontColor=default;exitX=0.792;exitY=0.912;exitDx=0;exitDy=0;exitPerimeter=0;entryX=0.318;entryY=0.018;entryDx=0;entryDy=0;entryPerimeter=0;" edge="1" parent="1" source="1ea317790d2ca983-9" target="IchzYvAacnoV2I44q3jx-26">
          <mxGeometry relative="1" as="geometry">
            <mxPoint x="685" y="-575" as="sourcePoint" />
            <mxPoint x="690" y="-512.5" as="targetPoint" />
          </mxGeometry>
        </mxCell>
        <mxCell id="IchzYvAacnoV2I44q3jx-30" value="verificarInicioSesion" style="ellipse;whiteSpace=wrap;html=1;rounded=1;shadow=1;comic=0;labelBackgroundColor=none;strokeWidth=1;fontFamily=Verdana;fontSize=12;align=center;fillColor=#F2CC8F;strokeColor=#E07A5F;fontColor=#393C56;" vertex="1" parent="1">
          <mxGeometry x="518.13" y="-445" width="133.75" height="75" as="geometry" />
        </mxCell>
        <mxCell id="IchzYvAacnoV2I44q3jx-35" value="Si coinciden" style="edgeStyle=none;rounded=1;html=1;labelBackgroundColor=none;startArrow=none;startFill=0;startSize=5;endArrow=classicThin;endFill=1;endSize=5;jettySize=auto;orthogonalLoop=1;strokeColor=#E07A5F;strokeWidth=1;fontFamily=Verdana;fontSize=12;fontColor=default;entryX=1;entryY=0;entryDx=0;entryDy=0;exitX=0;exitY=1;exitDx=0;exitDy=0;" edge="1" parent="1" source="IchzYvAacnoV2I44q3jx-30" target="IchzYvAacnoV2I44q3jx-36">
          <mxGeometry relative="1" as="geometry">
            <mxPoint x="565" y="-365" as="sourcePoint" />
            <mxPoint x="565" y="-260" as="targetPoint" />
          </mxGeometry>
        </mxCell>
        <mxCell id="IchzYvAacnoV2I44q3jx-36" value="Retorna la posición en la que esta el usuario" style="ellipse;whiteSpace=wrap;html=1;rounded=1;shadow=1;comic=0;labelBackgroundColor=none;strokeWidth=1;fontFamily=Verdana;fontSize=12;align=center;fillColor=#F2CC8F;strokeColor=#E07A5F;fontColor=#393C56;" vertex="1" parent="1">
          <mxGeometry x="385" y="-330" width="133.75" height="75" as="geometry" />
        </mxCell>
        <mxCell id="IchzYvAacnoV2I44q3jx-41" value="Se verifica con:" style="text;strokeColor=none;align=center;fillColor=none;html=1;verticalAlign=middle;whiteSpace=wrap;rounded=0;fontSize=10;" vertex="1" parent="1">
          <mxGeometry x="535" y="-490" width="95" height="30" as="geometry" />
        </mxCell>
        <mxCell id="IchzYvAacnoV2I44q3jx-42" value="Retorna -1" style="ellipse;whiteSpace=wrap;html=1;rounded=1;shadow=1;comic=0;labelBackgroundColor=none;strokeWidth=1;fontFamily=Verdana;fontSize=12;align=center;fillColor=#F2CC8F;strokeColor=#E07A5F;fontColor=#393C56;" vertex="1" parent="1">
          <mxGeometry x="645" y="-330" width="133.75" height="75" as="geometry" />
        </mxCell>
        <mxCell id="IchzYvAacnoV2I44q3jx-43" value="Si no coinciden" style="edgeStyle=none;rounded=1;html=1;labelBackgroundColor=none;startArrow=none;startFill=0;startSize=5;endArrow=classicThin;endFill=1;endSize=5;jettySize=auto;orthogonalLoop=1;strokeColor=#E07A5F;strokeWidth=1;fontFamily=Verdana;fontSize=12;fontColor=default;entryX=0;entryY=0;entryDx=0;entryDy=0;exitX=1;exitY=1;exitDx=0;exitDy=0;" edge="1" parent="1" source="IchzYvAacnoV2I44q3jx-30" target="IchzYvAacnoV2I44q3jx-42">
          <mxGeometry relative="1" as="geometry">
            <mxPoint x="633.75" y="-360" as="sourcePoint" />
            <mxPoint x="594.75" y="-298" as="targetPoint" />
          </mxGeometry>
        </mxCell>
        <mxCell id="IchzYvAacnoV2I44q3jx-45" value="Se verifica" style="edgeStyle=none;rounded=1;html=1;labelBackgroundColor=none;startArrow=none;startFill=0;startSize=5;endArrow=classicThin;endFill=1;endSize=5;jettySize=auto;orthogonalLoop=1;strokeColor=#E07A5F;strokeWidth=1;fontFamily=Verdana;fontSize=12;fontColor=default;exitX=0.5;exitY=1;exitDx=0;exitDy=0;entryX=0.5;entryY=0;entryDx=0;entryDy=0;" edge="1" parent="1" source="IchzYvAacnoV2I44q3jx-36" target="IchzYvAacnoV2I44q3jx-46">
          <mxGeometry relative="1" as="geometry">
            <mxPoint x="458" y="-215" as="sourcePoint" />
            <mxPoint x="350" y="-195" as="targetPoint" />
          </mxGeometry>
        </mxCell>
        <mxCell id="IchzYvAacnoV2I44q3jx-46" value="Categoria" style="ellipse;whiteSpace=wrap;html=1;rounded=1;shadow=1;comic=0;labelBackgroundColor=none;strokeWidth=1;fontFamily=Verdana;fontSize=12;align=center;fillColor=#F2CC8F;strokeColor=#E07A5F;fontColor=#393C56;" vertex="1" parent="1">
          <mxGeometry x="385" y="-180" width="133.75" height="75" as="geometry" />
        </mxCell>
        <mxCell id="IchzYvAacnoV2I44q3jx-47" value="Normal" style="ellipse;whiteSpace=wrap;html=1;rounded=1;shadow=1;comic=0;labelBackgroundColor=none;strokeWidth=1;fontFamily=Verdana;fontSize=12;align=center;fillColor=#F2CC8F;strokeColor=#E07A5F;fontColor=#393C56;" vertex="1" parent="1">
          <mxGeometry x="290" y="-65" width="133.75" height="75" as="geometry" />
        </mxCell>
        <mxCell id="IchzYvAacnoV2I44q3jx-50" value="Si es" style="edgeStyle=none;rounded=1;html=1;labelBackgroundColor=none;startArrow=none;startFill=0;startSize=5;endArrow=classicThin;endFill=1;endSize=5;jettySize=auto;orthogonalLoop=1;strokeColor=#E07A5F;strokeWidth=1;fontFamily=Verdana;fontSize=12;fontColor=default;exitX=0;exitY=1;exitDx=0;exitDy=0;entryX=0.5;entryY=0;entryDx=0;entryDy=0;" edge="1" parent="1" source="IchzYvAacnoV2I44q3jx-46" target="IchzYvAacnoV2I44q3jx-47">
          <mxGeometry relative="1" as="geometry">
            <mxPoint x="390" y="-105" as="sourcePoint" />
            <mxPoint x="370" y="-65" as="targetPoint" />
          </mxGeometry>
        </mxCell>
        <mxCell id="IchzYvAacnoV2I44q3jx-51" value="Si es" style="edgeStyle=none;rounded=1;html=1;labelBackgroundColor=none;startArrow=none;startFill=0;startSize=5;endArrow=classicThin;endFill=1;endSize=5;jettySize=auto;orthogonalLoop=1;strokeColor=#E07A5F;strokeWidth=1;fontFamily=Verdana;fontSize=12;fontColor=default;exitX=1;exitY=1;exitDx=0;exitDy=0;entryX=0.5;entryY=0;entryDx=0;entryDy=0;" edge="1" parent="1" source="IchzYvAacnoV2I44q3jx-46" target="IchzYvAacnoV2I44q3jx-52">
          <mxGeometry relative="1" as="geometry">
            <mxPoint x="530" y="-70" as="sourcePoint" />
            <mxPoint x="535" y="-65" as="targetPoint" />
          </mxGeometry>
        </mxCell>
        <mxCell id="IchzYvAacnoV2I44q3jx-52" value="Administrador" style="ellipse;whiteSpace=wrap;html=1;rounded=1;shadow=1;comic=0;labelBackgroundColor=none;strokeWidth=1;fontFamily=Verdana;fontSize=12;align=center;fillColor=#F2CC8F;strokeColor=#E07A5F;fontColor=#393C56;" vertex="1" parent="1">
          <mxGeometry x="475" y="-65" width="133.75" height="75" as="geometry" />
        </mxCell>
        <mxCell id="IchzYvAacnoV2I44q3jx-54" value="Se verifica" style="edgeStyle=none;rounded=1;html=1;labelBackgroundColor=none;startArrow=none;startFill=0;startSize=5;endArrow=classicThin;endFill=1;endSize=5;jettySize=auto;orthogonalLoop=1;strokeColor=#E07A5F;strokeWidth=1;fontFamily=Verdana;fontSize=12;fontColor=default;exitX=0.5;exitY=1;exitDx=0;exitDy=0;" edge="1" parent="1" source="IchzYvAacnoV2I44q3jx-47">
          <mxGeometry relative="1" as="geometry">
            <mxPoint x="385" y="50" as="sourcePoint" />
            <mxPoint x="357" y="65" as="targetPoint" />
          </mxGeometry>
        </mxCell>
        <mxCell id="IchzYvAacnoV2I44q3jx-55" value="Si es" style="edgeStyle=none;rounded=1;html=1;labelBackgroundColor=none;startArrow=none;startFill=0;startSize=5;endArrow=classicThin;endFill=1;endSize=5;jettySize=auto;orthogonalLoop=1;strokeColor=#E07A5F;strokeWidth=1;fontFamily=Verdana;fontSize=12;fontColor=default;exitX=1;exitY=1;exitDx=0;exitDy=0;entryX=0.5;entryY=0;entryDx=0;entryDy=0;" edge="1" parent="1">
          <mxGeometry relative="1" as="geometry">
            <mxPoint x="602" y="-120" as="sourcePoint" />
            <mxPoint x="645" y="-69" as="targetPoint" />
          </mxGeometry>
        </mxCell>
        <mxCell id="IchzYvAacnoV2I44q3jx-56" value="Se despliega" style="edgeStyle=none;rounded=1;html=1;labelBackgroundColor=none;startArrow=none;startFill=0;startSize=5;endArrow=classicThin;endFill=1;endSize=5;jettySize=auto;orthogonalLoop=1;strokeColor=#E07A5F;strokeWidth=1;fontFamily=Verdana;fontSize=12;fontColor=default;exitX=0.5;exitY=1;exitDx=0;exitDy=0;" edge="1" parent="1">
          <mxGeometry relative="1" as="geometry">
            <mxPoint x="550" y="10" as="sourcePoint" />
            <mxPoint x="550" y="65" as="targetPoint" />
          </mxGeometry>
        </mxCell>
        <mxCell id="IchzYvAacnoV2I44q3jx-57" value="Menú de Administrador" style="ellipse;whiteSpace=wrap;html=1;rounded=1;shadow=1;comic=0;labelBackgroundColor=none;strokeWidth=1;fontFamily=Verdana;fontSize=12;align=center;fillColor=#F2CC8F;strokeColor=#E07A5F;fontColor=#393C56;" vertex="1" parent="1">
          <mxGeometry x="485" y="65" width="133.75" height="75" as="geometry" />
        </mxCell>
        <mxCell id="IchzYvAacnoV2I44q3jx-58" value="Especialidad" style="ellipse;whiteSpace=wrap;html=1;rounded=1;shadow=1;comic=0;labelBackgroundColor=none;strokeWidth=1;fontFamily=Verdana;fontSize=12;align=center;fillColor=#F2CC8F;strokeColor=#E07A5F;fontColor=#393C56;" vertex="1" parent="1">
          <mxGeometry x="290" y="65" width="133.75" height="75" as="geometry" />
        </mxCell>
        <mxCell id="IchzYvAacnoV2I44q3jx-59" value="Se verifica" style="edgeStyle=none;rounded=1;html=1;labelBackgroundColor=none;startArrow=none;startFill=0;startSize=5;endArrow=classicThin;endFill=1;endSize=5;jettySize=auto;orthogonalLoop=1;strokeColor=#E07A5F;strokeWidth=1;fontFamily=Verdana;fontSize=12;fontColor=default;exitX=0;exitY=0.5;exitDx=0;exitDy=0;" edge="1" parent="1" source="IchzYvAacnoV2I44q3jx-58">
          <mxGeometry x="-0.0109" relative="1" as="geometry">
            <mxPoint x="205" y="180" as="sourcePoint" />
            <mxPoint x="170" y="103" as="targetPoint" />
            <mxPoint as="offset" />
          </mxGeometry>
        </mxCell>
        <mxCell id="IchzYvAacnoV2I44q3jx-60" value="Se verifica" style="edgeStyle=none;rounded=1;html=1;labelBackgroundColor=none;startArrow=none;startFill=0;startSize=5;endArrow=classicThin;endFill=1;endSize=5;jettySize=auto;orthogonalLoop=1;strokeColor=#E07A5F;strokeWidth=1;fontFamily=Verdana;fontSize=12;fontColor=default;exitX=0;exitY=1;exitDx=0;exitDy=0;" edge="1" parent="1" source="IchzYvAacnoV2I44q3jx-58">
          <mxGeometry x="-0.0109" relative="1" as="geometry">
            <mxPoint x="260" y="150" as="sourcePoint" />
            <mxPoint x="240" y="185" as="targetPoint" />
            <mxPoint as="offset" />
          </mxGeometry>
        </mxCell>
        <mxCell id="IchzYvAacnoV2I44q3jx-61" value="Se verifica" style="edgeStyle=none;rounded=1;html=1;labelBackgroundColor=none;startArrow=none;startFill=0;startSize=5;endArrow=classicThin;endFill=1;endSize=5;jettySize=auto;orthogonalLoop=1;strokeColor=#E07A5F;strokeWidth=1;fontFamily=Verdana;fontSize=12;fontColor=default;exitX=0.5;exitY=1;exitDx=0;exitDy=0;" edge="1" parent="1">
          <mxGeometry x="-0.0109" relative="1" as="geometry">
            <mxPoint x="335" y="220" as="sourcePoint" />
            <mxPoint x="335" y="275" as="targetPoint" />
            <mxPoint as="offset" />
          </mxGeometry>
        </mxCell>
      </root>
    </mxGraphModel>
  </diagram>
</mxfile>
